# xmcd
#
# Track frame offsets: 
#        150
#        16771
#        27591
#        38170
#        57699
#        73603
#        89505
#        106308
#        133830
#        153784
#        171481
#        189952
#        204855
#        225988
#        247866
#        262119
#        275860
#        292123
#        308638
#        326995
#
# Disc length: 4564 seconds
#
# Revision: 0
# Processed by: cddbd v1.5.1PL0 Copyright (c) Steve Scherf et al.
# Submitted via: ExactAudioCopy v0.95a5
#
DISCID=2511d214
DTITLE=Орбакайте Кристина - Это Просто Сон
DYEAR=2005
DGENRE=Pop
TTITLE0=Это Просто Сон
TTITLE1=Мой Мир
TTITLE2=Губки Бантиком
TTITLE3=Ты
TTITLE4=Телефонный Разговор
TTITLE5=Май
TTITLE6=Просто Любить Тебя
TTITLE7=Вербочки
TTITLE8=Ты Буди Меня
TTITLE9=Музыкант
TTITLE10=Танго Втроём
TTITLE11=Смородина
TTITLE12=Бесприютная Душа
TTITLE13=Пароходик
TTITLE14=Перелётная Птица
TTITLE15=Я Тебя Подожду
TTITLE16=Не Бей Любовь
TTITLE17=Да-Ди-Дам
TTITLE18=Рио Де Жанейро
TTITLE19=Свет Твоей Любви (Remix)
EXTD=
EXTT0=
EXTT1=
EXTT2=
EXTT3=
EXTT4=
EXTT5=
EXTT6=
EXTT7=
EXTT8=
EXTT9=
EXTT10=
EXTT11=
EXTT12=
EXTT13=
EXTT14=
EXTT15=
EXTT16=
EXTT17=
EXTT18=
EXTT19=
PLAYORDER=
